<svg width="200" height="200" viewBox="0 0 200 200" fill="none" xmlns="http://www.w3.org/2000/svg">
<circle cx="100" cy="100" r="100" fill="#F0F6FE"/>
<mask id="mask0_1_64396" style="mask-type:alpha" maskUnits="userSpaceOnUse" x="0" y="0" width="200" height="200">
<circle cx="100" cy="100" r="100" fill="#C4C4C4"/>
</mask>
<g mask="url(#mask0_1_64396)">
<path d="M77.1439 167.791C68.6982 176.106 64.1265 188.254 64.1265 200H77.1439L82.6577 188.735L77.1439 167.791Z" fill="#FFE9A6"/>
<path d="M123.422 167.791C131.868 176.106 136.44 188.254 136.44 200H123.422L117.909 188.735L123.422 167.791Z" fill="#FFE9A6"/>
<path d="M116.518 161.724V177.114C116.518 181.314 113.108 184.722 108.91 184.722H91.6583C87.4588 184.722 84.0503 181.314 84.0503 177.114V161.724H116.518Z" fill="#FFE9A6"/>
<path d="M123.422 167.791V200H77.1436V167.791C78.3177 166.632 79.5647 165.552 80.883 164.555H88.0461V176.157C88.0461 179.322 90.6155 181.89 93.781 181.89H106.785C109.95 181.89 112.52 179.322 112.52 176.157V164.555H119.683C121.001 165.551 122.248 166.632 123.422 167.791Z" fill="#F2C94C"/>
<path d="M25.5793 80.0087C23.5551 86.9067 22.5278 94.078 22.5278 101.322C22.5278 104.054 22.6775 106.762 22.9618 109.441H177.605C177.89 106.762 178.038 104.054 178.038 101.322C178.038 100.734 178.031 100.147 178.017 99.5575C177.864 92.919 176.842 86.3409 174.984 80.0087H25.5793Z" fill="#4F4F4F"/>
<path d="M44.0475 111.31C44.0475 118.227 38.4403 123.835 31.5244 123.835C24.6071 123.835 19 118.227 19 111.31C19 104.394 24.6071 98.7871 31.5244 98.7871C38.4403 98.7871 44.0475 104.394 44.0475 111.31Z" fill="#E2B3A3"/>
<path d="M181.566 111.31C181.566 118.227 175.959 123.835 169.043 123.835C162.126 123.835 156.519 118.227 156.519 111.31C156.519 104.394 162.126 98.7871 169.043 98.7871C175.959 98.7871 181.566 104.394 181.566 111.31Z" fill="#E2B3A3"/>
<path d="M38.737 74.83C49.1191 51.5514 72.7686 35.2861 100.284 35.2861C127.802 35.2861 151.451 51.5514 161.826 74.8342L166.953 109.44C162.884 142.079 134.586 167.354 100.284 167.354C65.9804 167.354 37.6823 142.079 33.6133 109.441L38.737 74.83Z" fill="#F5CDB6"/>
<path d="M163.665 43.6302C152.04 34.0295 129.974 20 100.284 20C70.5932 20 48.5258 34.0295 36.9022 43.6302C31.0383 48.4738 27.6353 55.674 27.6353 63.2793V75.3011H172.931V63.2793C172.931 55.674 169.529 48.4738 163.665 43.6302Z" fill="#2F80ED"/>
<path d="M132.212 112.158C130.713 112.158 129.496 110.941 129.496 109.441V103.232C129.496 101.733 130.713 100.516 132.212 100.516C133.713 100.516 134.929 101.733 134.929 103.232V109.441C134.929 110.941 133.713 112.158 132.212 112.158Z" fill="#394048"/>
<path d="M136.441 121.283H127.986C126.485 121.283 125.27 120.066 125.27 118.567C125.27 117.067 126.485 115.85 127.986 115.85H136.441C137.942 115.85 139.158 117.067 139.158 118.567C139.158 120.066 137.942 121.283 136.441 121.283Z" fill="#E98E8F"/>
<path d="M68.3531 112.158C66.8535 112.158 65.6367 110.941 65.6367 109.441V103.232C65.6367 101.733 66.8535 100.516 68.3531 100.516C69.8527 100.516 71.0695 101.733 71.0695 103.232V109.441C71.0695 110.941 69.8527 112.158 68.3531 112.158Z" fill="#394048"/>
<path d="M72.5818 121.283H64.1251C62.6254 121.283 61.4087 120.066 61.4087 118.567C61.4087 117.067 62.6254 115.85 64.1251 115.85H72.5818C74.0814 115.85 75.2982 117.067 75.2982 118.567C75.2982 120.066 74.0814 121.283 72.5818 121.283Z" fill="#E98E8F"/>
<path d="M100.284 120.933C97.2734 120.933 94.4471 119.672 92.5273 117.476C91.5399 116.347 91.6552 114.632 92.7841 113.643C93.9143 112.656 95.6295 112.771 96.6169 113.902C97.5055 114.916 98.8417 115.499 100.284 115.499C101.726 115.499 103.062 114.916 103.949 113.902C104.936 112.771 106.653 112.656 107.782 113.643C108.912 114.631 109.027 116.347 108.04 117.476C106.12 119.672 103.293 120.933 100.284 120.933Z" fill="#394048"/>
<path d="M53.3091 84.1011C53.3091 111.905 33.6134 109.441 33.6134 109.441C33.2783 106.781 33.1094 104.069 33.1094 101.322C33.1094 95.1369 33.991 88.9228 35.7324 82.9874C36.555 80.1873 37.5602 77.4654 38.7371 74.8314L53.3091 84.1011Z" fill="#4F4F4F"/>
<path d="M167.458 101.322C167.458 104.069 167.29 106.781 166.954 109.441C166.954 109.441 147.257 111.905 147.257 84.1011L161.827 74.8341C163.005 77.464 164.009 80.1872 164.831 82.9873C166.433 88.4434 167.31 94.1179 167.441 99.8019C167.452 100.31 167.458 100.814 167.458 101.322Z" fill="#4F4F4F"/>
<path d="M173.163 69.4302C159.415 64.9684 129.786 56.6339 100.284 56.6339C70.78 56.6339 41.1512 64.9684 27.4032 69.4302C23.0883 70.831 20.8197 75.5524 22.4305 79.7931L24.3174 84.7617C25.8171 88.7126 30.1484 90.7904 34.1708 89.494C46.7323 85.4469 73.9701 77.7936 100.284 77.7936C126.522 77.7936 153.823 85.4579 166.405 89.5036C170.423 90.7959 174.748 88.7154 176.247 84.7672L178.136 79.7931C179.746 75.5524 177.478 70.831 173.163 69.4302Z" fill="#6FA6F1"/>
<path d="M109.326 32.5697H91.2408C89.2756 32.5697 87.6826 34.1627 87.6826 36.1279V44.3223C87.6826 46.2875 89.2756 47.8805 91.2408 47.8805H109.326C111.291 47.8805 112.884 46.2875 112.884 44.3223V36.1279C112.884 34.1627 111.291 32.5697 109.326 32.5697Z" fill="white"/>
</g>
</svg>
