<svg width="421" height="85" viewBox="0 0 421 85" fill="none" xmlns="http://www.w3.org/2000/svg">
<path d="M160.77 26.6191V34.8398H164.7C166.033 34.8398 167.081 34.4655 167.845 33.7168C168.623 32.9681 169.013 31.9798 169.013 30.752C169.013 29.5391 168.616 28.5508 167.822 27.7871C167.029 27.0085 165.995 26.6191 164.723 26.6191H160.77ZM160.77 41.1289V52H151.246V19.5889H165.644C169.926 19.5889 173.175 20.5472 175.392 22.4639C177.623 24.3805 178.738 27.0908 178.738 30.5947C178.738 32.5563 178.274 34.3682 177.346 36.0303C176.432 37.6924 175.152 38.9202 173.505 39.7139L179.659 52H169.013L163.892 41.1289H160.77ZM194.034 52.6289C189.961 52.6289 186.772 51.4984 184.466 49.2373C182.16 46.9613 181.007 43.7419 181.007 39.5791C181.007 35.5212 182.175 32.3392 184.511 30.0332C186.862 27.7272 190.036 26.5742 194.034 26.5742C198.062 26.5742 201.244 27.7272 203.58 30.0332C205.916 32.3242 207.084 35.5062 207.084 39.5791C207.084 43.7419 205.931 46.9613 203.625 49.2373C201.319 51.4984 198.122 52.6289 194.034 52.6289ZM194.034 46.0479C195.187 46.0479 196.093 45.4863 196.752 44.3633C197.411 43.2402 197.74 41.653 197.74 39.6016C197.74 37.5951 197.403 36.0228 196.729 34.8848C196.071 33.7318 195.172 33.1553 194.034 33.1553C192.896 33.1553 191.998 33.7318 191.339 34.8848C190.68 36.0228 190.351 37.5951 190.351 39.6016C190.351 41.668 190.673 43.2627 191.316 44.3857C191.96 45.4938 192.866 46.0479 194.034 46.0479ZM235.228 27.2031V52H226.243V47.126H226.063C225.554 48.848 224.708 50.1732 223.525 51.1016C222.357 52.0299 220.868 52.4941 219.056 52.4941C216.33 52.4941 214.107 51.6556 212.385 49.9785C210.678 48.2865 209.824 45.9954 209.824 43.1055V27.2031H219.033V41.0391C219.033 42.3268 219.355 43.3226 219.999 44.0264C220.643 44.7152 221.511 45.0596 222.604 45.0596C223.638 45.0596 224.461 44.6927 225.075 43.959C225.704 43.2253 226.019 42.2594 226.019 41.0615V27.2031H235.228ZM238.687 52V27.2031H247.671V32.0771H247.851C248.479 30.3252 249.438 28.9925 250.726 28.0791C252.013 27.1657 253.593 26.709 255.465 26.709C258.235 26.709 260.361 27.5326 261.844 29.1797C263.341 30.8118 264.09 33.1253 264.09 36.1201V52H254.881V38.1641C254.881 36.8913 254.581 35.903 253.982 35.1992C253.398 34.4954 252.537 34.1436 251.399 34.1436C250.321 34.1436 249.468 34.5179 248.839 35.2666C248.21 36.0003 247.896 36.9587 247.896 38.1416V52H238.687ZM276.466 52.3594C273.411 52.3594 271.038 51.2363 269.346 48.9902C267.654 46.7292 266.808 43.5771 266.808 39.5342C266.808 35.5511 267.669 32.444 269.391 30.2129C271.128 27.9668 273.538 26.8438 276.623 26.8438C278.39 26.8438 279.917 27.293 281.205 28.1914C282.508 29.0749 283.406 30.2354 283.9 31.6729H284.08V19.5889H293.289V52H284.08V47.71H283.9C283.466 49.0426 282.568 50.1507 281.205 51.0342C279.857 51.9176 278.278 52.3594 276.466 52.3594ZM283.069 35.4463C282.366 34.443 281.4 33.9414 280.172 33.9414C278.944 33.9414 277.978 34.4505 277.274 35.4688C276.586 36.472 276.241 37.8496 276.241 39.6016C276.241 41.3835 276.586 42.776 277.274 43.7793C277.963 44.7676 278.929 45.2617 280.172 45.2617C281.415 45.2617 282.381 44.7676 283.069 43.7793C283.773 42.791 284.125 41.4059 284.125 39.624C284.125 37.8421 283.773 36.4495 283.069 35.4463ZM315.57 26.6191V34.8398H319.501C320.834 34.8398 321.882 34.4655 322.646 33.7168C323.424 32.9681 323.813 31.9798 323.813 30.752C323.813 29.5391 323.417 28.5508 322.623 27.7871C321.829 27.0085 320.796 26.6191 319.523 26.6191H315.57ZM315.57 41.1289V52H306.047V19.5889H320.444C324.727 19.5889 327.976 20.5472 330.192 22.4639C332.424 24.3805 333.539 27.0908 333.539 30.5947C333.539 32.5563 333.075 34.3682 332.146 36.0303C331.233 37.6924 329.953 38.9202 328.306 39.7139L334.46 52H323.813L318.692 41.1289H315.57ZM348.835 52.6289C344.762 52.6289 341.573 51.4984 339.267 49.2373C336.961 46.9613 335.808 43.7419 335.808 39.5791C335.808 35.5212 336.976 32.3392 339.312 30.0332C341.662 27.7272 344.837 26.5742 348.835 26.5742C352.863 26.5742 356.045 27.7272 358.381 30.0332C360.717 32.3242 361.885 35.5062 361.885 39.5791C361.885 43.7419 360.732 46.9613 358.426 49.2373C356.12 51.4984 352.923 52.6289 348.835 52.6289ZM348.835 46.0479C349.988 46.0479 350.894 45.4863 351.553 44.3633C352.212 43.2402 352.541 41.653 352.541 39.6016C352.541 37.5951 352.204 36.0228 351.53 34.8848C350.871 33.7318 349.973 33.1553 348.835 33.1553C347.697 33.1553 346.799 33.7318 346.14 34.8848C345.481 36.0228 345.151 37.5951 345.151 39.6016C345.151 41.668 345.473 43.2627 346.117 44.3857C346.761 45.4938 347.667 46.0479 348.835 46.0479ZM389.085 37.4678H380.707C380.617 36.2249 380.25 35.2441 379.606 34.5254C378.963 33.7917 378.146 33.4248 377.158 33.4248C375.945 33.4248 375.017 33.9489 374.373 34.9971C373.744 36.0452 373.43 37.5726 373.43 39.5791C373.43 41.6006 373.744 43.1429 374.373 44.2061C375.002 45.2542 375.93 45.7783 377.158 45.7783C378.191 45.7783 379.022 45.4414 379.651 44.7676C380.28 44.0788 380.632 43.1204 380.707 41.8926H389.085C389.04 45.2467 387.947 47.8747 385.806 49.7764C383.664 51.6781 380.744 52.6289 377.046 52.6289C373.018 52.6289 369.851 51.4759 367.545 49.1699C365.254 46.849 364.108 43.652 364.108 39.5791C364.108 35.5361 365.254 32.3617 367.545 30.0557C369.851 27.7347 373.003 26.5742 377.001 26.5742C380.625 26.5742 383.53 27.555 385.716 29.5166C387.902 31.4782 389.025 34.1286 389.085 37.4678ZM401.326 36.165L407.346 27.2031H417.476L409.232 37.7822L418.06 52H407.48L402.359 43.2852L401.146 44.9023V52H391.938V19.5889H401.146V36.165H401.326ZM161.797 73H158.07V68.0957H153.605V73H149.879V60.3174H153.605V65.1338H158.07V60.3174H161.797V73ZM173.496 70.7324C173.912 70.7324 174.272 70.627 174.577 70.416C174.882 70.1992 175.034 69.918 175.034 69.5723V68.9395L173.505 69.0449C173.165 69.0684 172.901 69.1562 172.714 69.3086C172.526 69.4609 172.432 69.6572 172.432 69.8975C172.432 70.1553 172.529 70.3604 172.722 70.5127C172.916 70.6592 173.174 70.7324 173.496 70.7324ZM172.151 73.1406C171.249 73.1406 170.478 72.8623 169.84 72.3057C169.201 71.7432 168.882 71.0342 168.882 70.1787C168.882 69.2529 169.224 68.5381 169.91 68.0342C170.601 67.5244 171.6 67.2285 172.907 67.1465L175.034 67.0146V66.54C175.034 66.2236 174.926 65.9775 174.709 65.8018C174.492 65.626 174.211 65.5381 173.865 65.5381C173.508 65.5381 173.215 65.623 172.986 65.793C172.758 65.9629 172.629 66.1768 172.599 66.4346H169.383C169.429 65.3916 169.869 64.5684 170.701 63.9648C171.533 63.3555 172.652 63.0508 174.058 63.0508C175.4 63.0508 176.484 63.3584 177.31 63.9736C178.136 64.583 178.55 65.3799 178.55 66.3643V73H175.034V71.6992H174.964C174.718 72.1562 174.334 72.5107 173.812 72.7627C173.297 73.0146 172.743 73.1406 172.151 73.1406ZM185.942 73V63.2969H189.457V65.2041H189.528C189.774 64.5186 190.149 63.9971 190.653 63.6396C191.157 63.2822 191.775 63.1035 192.507 63.1035C193.591 63.1035 194.423 63.4258 195.003 64.0703C195.589 64.709 195.882 65.6143 195.882 66.7861V73H192.279V67.5859C192.279 67.0879 192.162 66.7012 191.927 66.4258C191.699 66.1504 191.362 66.0127 190.916 66.0127C190.495 66.0127 190.161 66.1592 189.914 66.4521C189.668 66.7393 189.545 67.1143 189.545 67.5771V73H185.942ZM206.755 73.1406C205.56 73.1406 204.631 72.7012 203.969 71.8223C203.307 70.9375 202.976 69.7041 202.976 68.1221C202.976 66.5635 203.313 65.3477 203.986 64.4746C204.666 63.5957 205.61 63.1562 206.817 63.1562C207.508 63.1562 208.106 63.332 208.61 63.6836C209.119 64.0293 209.471 64.4834 209.664 65.0459H209.735V60.3174H213.338V73H209.735V71.3213H209.664C209.494 71.8428 209.143 72.2764 208.61 72.6221C208.082 72.9678 207.464 73.1406 206.755 73.1406ZM209.339 66.5225C209.064 66.1299 208.686 65.9336 208.205 65.9336C207.725 65.9336 207.347 66.1328 207.071 66.5312C206.802 66.9238 206.667 67.4629 206.667 68.1484C206.667 68.8457 206.802 69.3906 207.071 69.7832C207.341 70.1699 207.719 70.3633 208.205 70.3633C208.692 70.3633 209.069 70.1699 209.339 69.7832C209.614 69.3965 209.752 68.8545 209.752 68.1572C209.752 67.46 209.614 66.915 209.339 66.5225ZM222.383 76.5596H221.099V73.8789H221.794C222.304 73.8789 222.676 73.8291 222.91 73.7295C223.15 73.6357 223.27 73.4805 223.27 73.2637C223.27 73.1758 223.256 73.0879 223.226 73L220.045 63.2969H224.044L225.52 70.416H225.591L227.058 63.2969H230.864L227.973 72.7715C227.562 74.1191 226.921 75.0859 226.048 75.6719C225.181 76.2637 223.959 76.5596 222.383 76.5596ZM237.571 73V63.2969H241.087V65.2568H241.157C241.338 64.6006 241.681 64.0791 242.185 63.6924C242.689 63.2998 243.272 63.1035 243.934 63.1035C244.672 63.1035 245.276 63.291 245.745 63.666C246.219 64.0352 246.515 64.5596 246.632 65.2393H246.703C246.867 64.5947 247.218 64.0791 247.757 63.6924C248.302 63.2998 248.944 63.1035 249.682 63.1035C250.626 63.1035 251.393 63.4141 251.985 64.0352C252.577 64.6504 252.873 65.4531 252.873 66.4434V73H249.269V67.375C249.269 66.4551 248.877 65.9951 248.091 65.9951C247.728 65.9951 247.444 66.1182 247.239 66.3643C247.034 66.6045 246.931 66.9385 246.931 67.3662V73H243.512V67.3838C243.512 66.458 243.123 65.9951 242.343 65.9951C241.98 65.9951 241.693 66.1182 241.482 66.3643C241.277 66.6104 241.174 66.9443 241.174 67.3662V73H237.571ZM264.484 70.7324C264.9 70.7324 265.26 70.627 265.565 70.416C265.869 70.1992 266.022 69.918 266.022 69.5723V68.9395L264.493 69.0449C264.153 69.0684 263.889 69.1562 263.701 69.3086C263.514 69.4609 263.42 69.6572 263.42 69.8975C263.42 70.1553 263.517 70.3604 263.71 70.5127C263.904 70.6592 264.161 70.7324 264.484 70.7324ZM263.139 73.1406C262.237 73.1406 261.466 72.8623 260.827 72.3057C260.189 71.7432 259.869 71.0342 259.869 70.1787C259.869 69.2529 260.212 68.5381 260.898 68.0342C261.589 67.5244 262.588 67.2285 263.895 67.1465L266.022 67.0146V66.54C266.022 66.2236 265.913 65.9775 265.697 65.8018C265.48 65.626 265.199 65.5381 264.853 65.5381C264.495 65.5381 264.202 65.623 263.974 65.793C263.745 65.9629 263.617 66.1768 263.587 66.4346H260.37C260.417 65.3916 260.857 64.5684 261.689 63.9648C262.521 63.3555 263.64 63.0508 265.046 63.0508C266.388 63.0508 267.472 63.3584 268.298 63.9736C269.124 64.583 269.537 65.3799 269.537 66.3643V73H266.022V71.6992H265.951C265.705 72.1562 265.322 72.5107 264.8 72.7627C264.284 73.0146 263.731 73.1406 263.139 73.1406ZM276.93 73V63.2969H280.445V65.2041H280.516C280.762 64.5186 281.137 63.9971 281.641 63.6396C282.145 63.2822 282.763 63.1035 283.495 63.1035C284.579 63.1035 285.411 63.4258 285.991 64.0703C286.577 64.709 286.87 65.6143 286.87 66.7861V73H283.267V67.5859C283.267 67.0879 283.149 66.7012 282.915 66.4258C282.687 66.1504 282.35 66.0127 281.904 66.0127C281.482 66.0127 281.148 66.1592 280.902 66.4521C280.656 66.7393 280.533 67.1143 280.533 67.5771V73H276.93ZM303.5 66.3115C303.5 65.2979 303.905 64.501 304.713 63.9209C305.522 63.3408 306.632 63.0508 308.044 63.0508C309.462 63.0508 310.57 63.3496 311.367 63.9473C312.169 64.5449 312.571 65.374 312.571 66.4346H309.301C309.301 66.1182 309.184 65.8691 308.95 65.6875C308.721 65.5 308.411 65.4062 308.018 65.4062C307.696 65.4062 307.435 65.4678 307.236 65.5908C307.042 65.708 306.946 65.8691 306.946 66.0742C306.946 66.3789 307.259 66.5898 307.886 66.707L310.075 67.1377C311.036 67.3252 311.739 67.6357 312.184 68.0693C312.635 68.4971 312.861 69.0801 312.861 69.8184C312.861 70.8672 312.427 71.7021 311.56 72.3232C310.699 72.9385 309.553 73.2461 308.124 73.2461C306.629 73.2461 305.463 72.9443 304.625 72.3408C303.793 71.7314 303.345 70.9023 303.281 69.8535H306.761C306.796 70.1758 306.937 70.4307 307.183 70.6182C307.435 70.7998 307.763 70.8906 308.167 70.8906C308.519 70.8906 308.794 70.835 308.994 70.7236C309.193 70.6064 309.292 70.4482 309.292 70.249C309.292 70.0967 309.222 69.9736 309.082 69.8799C308.941 69.7803 308.707 69.7012 308.378 69.6426L306.506 69.2734C305.528 69.0801 304.781 68.7314 304.265 68.2275C303.755 67.7178 303.5 67.0791 303.5 66.3115ZM324.648 65.5293C324.238 65.5293 323.892 65.6641 323.611 65.9336C323.329 66.2031 323.171 66.5459 323.136 66.9619H326.159C326.13 66.5283 325.975 66.1826 325.694 65.9248C325.418 65.6611 325.07 65.5293 324.648 65.5293ZM326.265 69.8535H329.473C329.321 70.9023 328.817 71.7314 327.961 72.3408C327.106 72.9443 326.013 73.2461 324.683 73.2461C323.095 73.2461 321.853 72.8008 320.956 71.9102C320.06 71.0137 319.612 69.7773 319.612 68.2012C319.612 66.6133 320.057 65.3594 320.947 64.4395C321.838 63.5137 323.045 63.0508 324.569 63.0508C326.074 63.0508 327.276 63.4961 328.172 64.3867C329.069 65.2715 329.517 66.4551 329.517 67.9375V68.9131H323.083V69.1416C323.083 69.6162 323.238 70.0088 323.549 70.3193C323.86 70.624 324.255 70.7764 324.736 70.7764C325.105 70.7764 325.424 70.6943 325.694 70.5303C325.969 70.3662 326.159 70.1406 326.265 69.8535ZM336.645 73V63.2969H340.161V65.2041H340.231C340.595 63.8389 341.351 63.1562 342.499 63.1562C342.809 63.1562 343.091 63.2031 343.343 63.2969V66.3203C343.026 66.1855 342.678 66.1182 342.297 66.1182C340.932 66.1182 340.249 66.8008 340.249 68.166V73H336.645ZM359.955 63.2969L356.843 73H352.616L349.461 63.2969H353.345L354.752 70.0908H354.822L356.184 63.2969H359.955ZM366.565 73V63.2969H370.168V73H366.565ZM369.641 62.2773C369.301 62.5996 368.876 62.7607 368.367 62.7607C367.857 62.7607 367.429 62.5996 367.083 62.2773C366.744 61.9492 366.574 61.542 366.574 61.0557C366.574 60.5693 366.744 60.165 367.083 59.8428C367.429 59.5146 367.857 59.3506 368.367 59.3506C368.876 59.3506 369.301 59.5146 369.641 59.8428C369.987 60.165 370.16 60.5693 370.16 61.0557C370.16 61.542 369.987 61.9492 369.641 62.2773ZM387.079 67.3135H383.801C383.766 66.8271 383.622 66.4434 383.37 66.1621C383.118 65.875 382.799 65.7314 382.412 65.7314C381.938 65.7314 381.574 65.9365 381.322 66.3467C381.076 66.7568 380.953 67.3545 380.953 68.1396C380.953 68.9307 381.076 69.5342 381.322 69.9502C381.568 70.3604 381.932 70.5654 382.412 70.5654C382.816 70.5654 383.142 70.4336 383.388 70.1699C383.634 69.9004 383.772 69.5254 383.801 69.0449H387.079C387.062 70.3574 386.634 71.3857 385.796 72.1299C384.958 72.874 383.816 73.2461 382.368 73.2461C380.792 73.2461 379.553 72.7949 378.65 71.8926C377.754 70.9844 377.306 69.7334 377.306 68.1396C377.306 66.5576 377.754 65.3154 378.65 64.4131C379.553 63.5049 380.786 63.0508 382.351 63.0508C383.769 63.0508 384.905 63.4346 385.761 64.2021C386.616 64.9697 387.056 66.0068 387.079 67.3135ZM398.971 65.5293C398.561 65.5293 398.216 65.6641 397.934 65.9336C397.653 66.2031 397.495 66.5459 397.46 66.9619H400.483C400.454 66.5283 400.299 66.1826 400.017 65.9248C399.742 65.6611 399.393 65.5293 398.971 65.5293ZM400.589 69.8535H403.797C403.644 70.9023 403.14 71.7314 402.285 72.3408C401.429 72.9443 400.337 73.2461 399.007 73.2461C397.419 73.2461 396.177 72.8008 395.28 71.9102C394.384 71.0137 393.935 69.7773 393.935 68.2012C393.935 66.6133 394.381 65.3594 395.271 64.4395C396.162 63.5137 397.369 63.0508 398.892 63.0508C400.398 63.0508 401.599 63.4961 402.496 64.3867C403.392 65.2715 403.841 66.4551 403.841 67.9375V68.9131H397.407V69.1416C397.407 69.6162 397.562 70.0088 397.873 70.3193C398.183 70.624 398.579 70.7764 399.059 70.7764C399.429 70.7764 399.748 70.6943 400.017 70.5303C400.293 70.3662 400.483 70.1406 400.589 69.8535ZM410.802 66.3115C410.802 65.2979 411.207 64.501 412.015 63.9209C412.824 63.3408 413.934 63.0508 415.346 63.0508C416.764 63.0508 417.872 63.3496 418.668 63.9473C419.471 64.5449 419.873 65.374 419.873 66.4346H416.603C416.603 66.1182 416.486 65.8691 416.251 65.6875C416.023 65.5 415.712 65.4062 415.32 65.4062C414.998 65.4062 414.737 65.4678 414.538 65.5908C414.344 65.708 414.248 65.8691 414.248 66.0742C414.248 66.3789 414.561 66.5898 415.188 66.707L417.376 67.1377C418.337 67.3252 419.041 67.6357 419.486 68.0693C419.937 68.4971 420.163 69.0801 420.163 69.8184C420.163 70.8672 419.729 71.7021 418.862 72.3232C418.001 72.9385 416.855 73.2461 415.425 73.2461C413.931 73.2461 412.765 72.9443 411.927 72.3408C411.095 71.7314 410.647 70.9023 410.583 69.8535H414.063C414.098 70.1758 414.239 70.4307 414.485 70.6182C414.737 70.7998 415.065 70.8906 415.469 70.8906C415.821 70.8906 416.096 70.835 416.295 70.7236C416.495 70.6064 416.594 70.4482 416.594 70.249C416.594 70.0967 416.524 69.9736 416.383 69.8799C416.243 69.7803 416.008 69.7012 415.68 69.6426L413.808 69.2734C412.83 69.0801 412.083 68.7314 411.567 68.2275C411.057 67.7178 410.802 67.0791 410.802 66.3115Z" fill="white"/>
<g clip-path="url(#clip0_30_95)">
<path d="M127.217 12.2174L113.986 20.9273L110.783 16.1668L124.016 7.45463L122.229 4.80252L110.265 2.4311L100.099 9.11882L97.6927 20.9627L97.7977 21.1196L92.5928 24.4171C92.146 24.0281 91.6993 23.6465 91.2525 23.2722C91.6993 21.082 90.3947 18.6708 88.1385 17.6188C86.3515 16.7834 84.3767 16.9823 83.0007 18.0078C79.0385 16.0758 74.7833 14.7984 70.4041 14.2263C69.9884 13.2162 69.2834 12.3484 68.3757 11.7295C67.468 11.1107 66.3973 10.7679 65.2952 10.7432C62.8 10.6681 60.5908 12.1201 59.771 14.2263C55.3866 14.7989 51.1268 16.0786 47.1609 18.0144C45.7871 16.9934 43.8101 16.7989 42.0365 17.6321C39.7825 18.6841 38.4891 21.0887 38.9203 23.2766C38.4444 23.6634 37.9798 24.059 37.5219 24.4657L32.2254 21.113L33.1458 19.7427L30.2954 16.0165C33.6132 12.4563 37.8675 9.88042 42.5815 8.57735L44.4736 8.05356L40.1533 0L39.0364 0.179017C25.0034 2.4311 14.6764 9.01937 8.3367 19.7803L8.00386 20.3439L8.17587 20.9759C9.02473 24.0944 9.2012 26.1409 9.14982 27.4294L6.89141 25.942L0 36.2454L12.8602 44.7233L19.7516 34.4288L17.3815 32.8662C19.2423 31.8982 21.3734 31.6021 23.844 31.9645L24.8359 32.1082L25.7294 30.7821L29.7302 33.5182C26.1423 39.0193 23.7442 45.1957 22.6869 51.6586C21.3042 52.189 19.039 53.3781 18.7688 55.5395C18.4024 58.4723 22.0614 60.5233 23.2632 61.1996C25.4837 62.4438 27.1479 63.2903 28.3653 63.9069L29.4309 64.4528L19.0726 71.0101C17.0398 72.2942 15.6235 74.2103 15.1857 76.2657C15.0172 76.9837 14.996 77.7278 15.1234 78.454C15.2508 79.1803 15.5241 79.8738 15.9273 80.4936L17.3212 82.5667C17.7442 83.1722 18.2855 83.6878 18.9131 84.083C19.5408 84.4781 20.2422 84.7449 20.9758 84.8674C21.4222 84.9498 21.8754 84.9912 22.3295 84.9911C24.1404 84.9611 25.8996 84.3894 27.3758 83.3513L39.7758 74.8756C40.8136 75.5255 41.9117 76.0761 43.0551 76.5199C47.9092 78.4272 54.8945 79.3179 65.025 79.3179C75.1554 79.3179 82.1407 78.4338 86.9948 76.5199C88.134 76.0774 89.2283 75.529 90.2629 74.8822L102.652 83.3513C104.129 84.3899 105.889 84.9616 107.7 84.9911C108.154 84.9913 108.606 84.9499 109.052 84.8674C109.786 84.7441 110.489 84.4761 111.117 84.0794C111.745 83.6827 112.286 83.1653 112.709 82.5578L114.103 80.4848C114.504 79.8644 114.777 79.1708 114.904 78.4447C115.031 77.7187 115.01 76.9748 114.842 76.2569C114.395 74.2015 112.99 72.2787 110.959 71.0035L100.615 64.4462C100.936 64.2782 101.285 64.097 101.691 63.8937C102.906 63.277 104.573 62.4306 106.793 61.1863C107.995 60.51 111.654 58.459 111.286 55.5263C111.024 53.4223 108.873 52.2421 107.488 51.6918C106.43 45.1888 104.015 38.975 100.398 33.4453L104.303 30.7755L104.461 31.012L116.435 33.3922L126.601 26.7001L129.004 14.8562L127.217 12.2174ZM11.9734 40.3651L4.3828 35.3614L7.77824 30.2915L9.29726 31.2926L9.33523 31.3147C9.34471 31.3233 9.35522 31.3308 9.36651 31.3368L9.39331 31.3545L13.6108 34.1348C13.6577 34.168 13.7046 34.2011 13.7538 34.2298L15.3688 35.2951L11.9734 40.3651ZM14.4865 30.9412L12.0918 29.361C12.4715 27.7057 12.4894 25.0425 11.4038 20.7969C17.1671 11.3599 26.022 5.67772 38.4333 3.45216L39.8719 6.13299C34.9261 7.85023 30.6215 10.7941 27.0518 14.9026L26.2186 15.8596L29.2634 19.8599L23.2923 28.7311C19.9527 28.4438 16.9995 29.1864 14.4865 30.9412ZM86.7781 20.4433C87.732 20.8853 88.3418 21.9152 88.1184 22.7197C88.0872 22.7904 88.0358 22.9009 87.971 23.049C87.9576 23.0733 87.9464 23.0998 87.933 23.1286C87.9196 23.1573 87.933 23.1286 87.933 23.1286C87.9265 23.1445 87.919 23.16 87.9107 23.175C87.3991 24.28 86.2554 26.7111 84.8682 29.2969C84.4907 30.0019 84.0975 30.718 83.6932 31.4252C82.9419 32.764 82.1217 34.0637 81.236 35.3194C80.3424 36.5482 79.7438 37.1648 79.3707 37.472C79.3567 37.1409 79.3686 36.8091 79.4064 36.4797C79.4958 35.5957 79.7482 34.2298 80.3558 32.159C80.5569 31.4717 80.8026 30.7048 81.0863 29.8517C82.3931 25.9774 84.0484 22.1274 84.5242 21.04C84.5689 20.9362 84.6091 20.8456 84.647 20.7616L84.6627 20.7395C85.0536 20.2046 85.9605 20.0698 86.7781 20.4522V20.4433ZM65.1791 13.8727C66.3787 13.9147 67.4129 14.7413 67.5514 15.7712C67.5514 15.8883 67.5514 16.0254 67.5514 16.1734C67.5403 17.6122 67.4643 22.6888 67.0108 27.5863C66.4099 34.0575 65.5142 36.2698 65.0808 36.988C64.6541 36.2808 63.774 34.1149 63.1753 27.8471C62.7286 23.1175 62.6303 18.2354 62.6102 16.3547C62.6102 16.0762 62.6102 15.8773 62.6102 15.7712C62.771 14.6772 63.8991 13.8396 65.1791 13.8727ZM43.3768 20.4654C44.1899 20.0875 45.0879 20.2179 45.4855 20.7549C45.4952 20.7662 45.5041 20.778 45.5123 20.7903C45.5481 20.8699 45.5905 20.9627 45.633 21.0621C46.1088 22.1517 47.764 26.0017 49.0708 29.876C49.3702 30.76 49.6181 31.5534 49.8236 32.2629C50.4313 34.3426 50.6747 35.7018 50.7552 36.5725C50.787 36.8787 50.7967 37.1866 50.7842 37.4941C50.4246 37.198 49.846 36.6101 49.0105 35.4675C48.09 34.1763 47.2399 32.8373 46.4639 31.4562C46.0797 30.7821 45.7022 30.0992 45.347 29.4273C43.9285 26.7885 42.7602 24.311 42.242 23.2059L42.2241 23.1661C42.2129 23.1418 42.2018 23.1197 42.1928 23.0976L42.0342 22.7484C41.8243 21.9395 42.4252 20.9119 43.3768 20.4654ZM27.4763 28.1742L30.4674 23.7253L35.1585 26.7023C33.8621 28.0394 32.6512 29.4551 31.5329 30.9412L27.4763 28.1742ZM25.5663 80.7743C24.2975 81.6429 22.8031 82.0208 21.5633 81.7865C21.2434 81.7385 20.9363 81.6285 20.6595 81.4627C20.3828 81.297 20.1418 81.0788 19.9505 80.8207L18.5565 78.7477C18.2237 78.1952 18.1257 77.5348 18.284 76.9111C18.5409 75.6911 19.4746 74.48 20.7747 73.649L32.2344 66.3866C32.8464 67.0364 33.4451 67.905 34.3498 69.3039C35.1543 70.5859 36.1046 71.7724 37.1823 72.8401L25.5663 80.7743ZM109.244 73.6379C110.544 74.4579 111.478 75.6778 111.735 76.8978C111.815 77.2085 111.832 77.532 111.784 77.8493C111.737 78.1665 111.626 78.4712 111.458 78.7454L110.064 80.8185C109.872 81.0769 109.631 81.2952 109.354 81.4609C109.076 81.6267 108.769 81.7366 108.449 81.7843C107.211 82.0186 105.714 81.6407 104.443 80.7699L92.8475 72.8423C93.9286 71.7702 94.8812 70.5785 95.6867 69.2907C96.5802 67.8961 97.1878 67.0276 97.7932 66.38L109.244 73.6379ZM108.145 55.9152C108.145 55.9506 108.122 56.8413 105.241 58.4657C103.078 59.6768 101.513 60.4724 100.253 61.1178C99.1626 61.6725 98.3204 62.1079 97.61 62.5455C96.6611 63.1119 95.8185 63.8364 95.1193 64.6871C94.3685 65.6212 93.6741 66.5982 93.0396 67.6132C92.2595 68.8805 91.3004 70.0311 90.1914 71.03C89.3364 71.7719 88.3899 72.4039 87.3746 72.9108C83.4609 74.8999 76.9961 76.1928 65.0361 76.1928C53.0761 76.1928 46.5868 74.8999 42.6664 72.9042C41.6515 72.3968 40.7058 71.764 39.8518 71.0212C38.7464 70.0246 37.7903 68.877 37.0126 67.6132C36.3763 66.5944 35.6788 65.6144 34.9239 64.6782C34.226 63.8313 33.3857 63.1098 32.4399 62.5455C31.7317 62.1035 30.8918 61.6769 29.8039 61.1244C28.5463 60.4835 26.9804 59.6879 24.818 58.4723C21.8827 56.8236 21.914 55.9307 21.914 55.9219C21.9564 55.5771 22.7852 55.0069 23.7346 54.6201C25.1062 55.6434 28.6111 58.0679 34.0549 60.4945C34.3662 60.633 34.6864 60.773 35.0155 60.9145C36.119 61.3852 37.3275 61.8648 38.6366 62.3377C41.8458 63.4953 45.1332 64.4288 48.4744 65.1313C49.884 65.4297 51.3561 65.6971 52.884 65.9247C56.7094 66.4973 60.573 66.7839 64.4419 66.7822C68.6318 66.7823 72.8149 66.4512 76.9514 65.7921C78.4638 65.5534 79.9225 65.2772 81.3231 64.9744C84.6573 64.2548 87.9406 63.3209 91.152 62.1786C92.4677 61.7123 93.6874 61.2371 94.8021 60.773L95.4521 60.5012C101.164 58.0701 104.912 55.639 106.364 54.6356C107.296 55.0312 108.102 55.5793 108.145 55.9152ZM104.347 52.1912C102.891 53.1858 99.3346 55.4379 94.0716 57.6656C93.2786 58.0016 92.423 58.3485 91.5116 58.6955C90.3433 59.1375 89.079 59.5796 87.7253 60.0216C84.4351 61.0706 81.0766 61.8969 77.673 62.4947C76.1964 62.7555 74.6618 62.9809 73.0757 63.1577C70.2097 63.4848 67.327 63.6494 64.4419 63.6505C61.8836 63.651 59.3269 63.5212 56.7821 63.2616C55.1715 63.0958 53.6189 62.8836 52.129 62.6339C48.7048 62.0633 45.3278 61.2441 42.0253 60.1829C40.685 59.7409 39.4206 59.2989 38.2613 58.8569C37.256 58.4657 36.3223 58.0745 35.4645 57.6944C30.4562 55.4843 27.1434 53.23 25.7942 52.2399C26.7684 46.2078 28.993 40.4402 32.3282 35.2995C32.9001 34.4155 33.5032 33.5587 34.1376 32.7292C35.2887 31.2139 36.5433 29.7784 37.8927 28.4328C38.6373 27.6961 39.4095 26.9844 40.2092 26.2978C40.9039 27.7388 41.8645 29.666 42.9389 31.6308C43.1623 32.0529 43.408 32.4795 43.6493 32.9016C47.1721 39.0898 49.0105 40.3496 50.2056 40.7629C50.5153 40.873 50.8416 40.9305 51.1707 40.933C51.5762 40.9333 51.976 40.8379 52.3367 40.6546C53.132 40.2523 53.6368 39.5716 53.849 38.5439C54.0478 37.5892 53.9965 36.3339 53.6927 34.7249C53.356 33.0576 52.9158 31.4124 52.3747 29.7986C51.2153 26.2072 49.6941 22.5053 48.8988 20.6643C52.2375 19.077 55.7962 17.9895 59.4582 17.4376C59.5029 20.0234 59.6503 24.7662 60.1284 29.2041C60.4523 32.1988 60.8789 34.5879 61.3994 36.3007C61.7055 37.3107 62.6392 40.3827 65.0786 40.3827C67.5179 40.3827 68.4807 37.2334 68.7867 36.199C69.3095 34.431 69.7361 31.9999 70.0578 28.9345C70.5046 24.5585 70.6542 19.8731 70.6989 17.442C74.3595 17.9914 77.9169 19.0774 81.2538 20.6643C80.463 22.5031 78.9396 26.2006 77.7824 29.7876C77.2507 31.3766 76.8158 32.9959 76.4801 34.6365C76.3014 35.4994 76.2041 36.3769 76.1897 37.2577C76.186 37.6653 76.2219 38.0724 76.2969 38.4732C76.5002 39.5341 77.0095 40.2413 77.8204 40.6435C78.1813 40.8262 78.5811 40.9209 78.9865 40.9198C79.3147 40.918 79.6402 40.8612 79.9493 40.7518C81.1533 40.3385 82.9851 39.0699 86.5078 32.8883C86.767 32.4308 87.0238 31.9733 87.274 31.5159C88.3239 29.5909 89.2622 27.7101 89.9435 26.2934C90.7268 26.9609 91.4833 27.6585 92.2131 28.3864C93.5651 29.7291 94.822 31.1624 95.9749 32.6762C96.6093 33.5071 97.2132 34.3632 97.7865 35.2443C101.138 40.3845 103.375 46.1565 104.356 52.1957L104.347 52.1912ZM98.5795 30.886C97.4561 29.4009 96.24 27.9866 94.9384 26.6515L99.5535 23.7275L102.547 28.1764L98.5795 30.886ZM123.755 24.8193L115.771 30.0749L106.376 28.2074L101.057 20.3019L102.944 11.0195L110.926 5.74623L118.575 7.26677L106.394 15.2938L113.095 25.2701L125.276 17.2519L123.755 24.8193Z" fill="white"/>
</g>
<defs>
<clipPath id="clip0_30_95">
<rect width="129" height="85" fill="white"/>
</clipPath>
</defs>
</svg>
